<?xml version="1.0" encoding="UTF-8" standalone="no"?>
<!-- Created with Inkscape (http://www.inkscape.org/) -->
<svg
   xmlns:dc="http://purl.org/dc/elements/1.1/"
   xmlns:cc="http://web.resource.org/cc/"
   xmlns:rdf="http://www.w3.org/1999/02/22-rdf-syntax-ns#"
   xmlns:svg="http://www.w3.org/2000/svg"
   xmlns="http://www.w3.org/2000/svg"
   xmlns:sodipodi="http://inkscape.sourceforge.net/DTD/sodipodi-0.dtd"
   xmlns:inkscape="http://www.inkscape.org/namespaces/inkscape"
   id="svg1340"
   sodipodi:version="0.32"
   inkscape:version="0.40+cvs"
   width="90.000000px"
   height="90.000000px"
   sodipodi:docbase="D:\My Documents\Jimmy\Gem sprites"
   sodipodi:docname="Dragon Gem.svg">
  <metadata
     id="metadata1345">
    <rdf:RDF
       id="RDF1347">
      <cc:Work
         rdf:about=""
         id="Work1349">
        <dc:format
           id="format1351">image/svg+xml</dc:format>
        <dc:type
           id="type1353"
           rdf:resource="http://purl.org/dc/dcmitype/StillImage" />
      </cc:Work>
    </rdf:RDF>
  </metadata>
  <defs
     id="defs1343" />
  <sodipodi:namedview
     id="base"
     pagecolor="#ffffff"
     bordercolor="#666666"
     borderopacity="1.0"
     inkscape:pageopacity="0.0"
     inkscape:pageshadow="2"
     inkscape:window-width="1024"
     inkscape:window-height="721"
     showguides="true"
     inkscape:guide-bbox="true"
     inkscape:zoom="6.0333333"
     inkscape:cx="45.000000"
     inkscape:cy="45.000000"
     inkscape:window-x="-4"
     inkscape:window-y="-4"
     inkscape:current-layer="svg1340" />
  <path
     style="fill:#313131;fill-opacity:1.0000000;fill-rule:evenodd;stroke:none;stroke-width:1.0143771px;stroke-linecap:butt;stroke-linejoin:miter;stroke-opacity:1.0000000"
     d="M 21.560440,6.7072581 L -2.0733320e-006,30.578453 L -2.0733320e-006,40.501531 L 44.967032,83.292742 L 89.999998,40.501531 L 89.999998,30.578453 L 68.406595,6.7072581 L 21.560440,6.7072581 z "
     id="path2877"
     sodipodi:nodetypes="cccccccc" />
  <path
     style="fill:#5a5a5a;fill-opacity:1.0000000;fill-rule:evenodd;stroke:none;stroke-width:1.0143771px;stroke-linecap:butt;stroke-linejoin:miter;stroke-opacity:1.0000000"
     d="M 21.560440,6.7072581 L -2.0733320e-006,30.578453 L -2.0733320e-006,40.501531 L 17.101648,30.444134 L 63.715913,15.155826 L 68.406595,6.7072581 L 21.560440,6.7072581 z "
     id="path3643"
     sodipodi:nodetypes="ccccccc" />
  <path
     sodipodi:nodetypes="cccccccc"
     id="path1452"
     d="M 23.281250,9.8437500 L 3.3437500,30.750000 L 3.3437500,38.468750 L 44.968750,78.125000 L 86.656250,38.468750 L 86.656250,30.437500 L 66.687500,9.8437500 L 23.281250,9.8437500 z "
     style="stroke-opacity:1.0000000;stroke-linejoin:miter;stroke-linecap:butt;stroke-width:1.0143771px;stroke:none;fill-rule:evenodd;fill-opacity:1.0000000;fill:#8363e6" />
  <path
     style="fill:#acbcee;fill-opacity:1.0000000;fill-rule:evenodd;stroke:none;stroke-width:1.0143771px;stroke-linecap:butt;stroke-linejoin:miter;stroke-opacity:1.0000000"
     d="M 3.3437500,33.687500 L 3.3437500,38.468750 L 22.843750,57.062500 L 24.750000,54.406250 L 3.3437500,33.687500 z "
     id="path5531" />
  <path
     style="fill:#acbcee;fill-opacity:1.0000000;fill-rule:evenodd;stroke:none;stroke-width:1.0143771px;stroke-linecap:butt;stroke-linejoin:miter;stroke-opacity:1.0000000"
     d="M 24.750000,54.406250 L 34.468750,63.812500 L 34.562500,68.187500 L 44.968750,78.125000 L 44.843750,73.812500 L 24.750000,54.406250 z "
     id="path2554" />
  <path
     style="fill:#acbcee;fill-opacity:1.0000000;fill-rule:evenodd;stroke:none;stroke-width:1.0143771px;stroke-linecap:butt;stroke-linejoin:miter;stroke-opacity:1.0000000"
     d="M 72.752217,16.037937 L 64.919770,23.870384 L 79.089675,38.007789 L 86.662120,30.435340 L 72.752217,16.037937 z "
     id="path5479"
     sodipodi:nodetypes="ccccc" />
  <path
     style="fill:#ddfedd;fill-opacity:1.0000000;fill-rule:evenodd;stroke:none;stroke-width:2.0000000;stroke-linecap:butt;stroke-linejoin:miter;stroke-miterlimit:4.0000000;stroke-opacity:1.0000000"
     d="M 26.635028,24.910377 L 44.834905,47.359602 L 20.240696,47.359602 L 12.042626,39.502779 L 26.635028,24.910377 z "
     id="path5454"
     sodipodi:nodetypes="ccccc" />
  <path
     style="fill:#acbcee;fill-opacity:1.0000000;fill-rule:evenodd;stroke:none;stroke-width:2.0000000;stroke-linecap:butt;stroke-linejoin:miter;stroke-miterlimit:4.0000000;stroke-opacity:1.0000000"
     d="M 26.635028,24.910377 L 63.034783,24.910377 L 44.834905,47.359602 L 26.635028,24.910377 z "
     id="path5456"
     sodipodi:nodetypes="cccc" />
  <path
     style="fill:#a483cd;fill-opacity:1.0000000;fill-rule:evenodd;stroke:none;stroke-width:2.0000000;stroke-linecap:butt;stroke-linejoin:miter;stroke-miterlimit:4.0000000;stroke-opacity:1.0000000"
     d="M 63.034783,24.910377 L 77.627185,39.502779 L 69.429115,47.359602 L 44.834905,47.359602 L 63.034783,24.910377 z "
     id="path5458"
     sodipodi:nodetypes="ccccc" />
  <path
     style="fill:#633973;fill-opacity:1.0000000;fill-rule:evenodd;stroke:none;stroke-width:2.0000000;stroke-linecap:butt;stroke-linejoin:miter;stroke-miterlimit:4.0000000;stroke-opacity:1.0000000"
     d="M 69.429115,47.359602 L 44.834905,70.930067 L 44.834905,47.359602 L 69.429115,47.359602 z "
     id="path5467"
     sodipodi:nodetypes="cccc" />
  <path
     style="fill:#acbcee;fill-opacity:1.0000000;fill-rule:evenodd;stroke:none;stroke-width:1.0143771px;stroke-linecap:butt;stroke-linejoin:miter;stroke-opacity:1.0000000"
     d="M 3.3326846,30.760338 L 10.580136,38.007789 L 24.750040,23.870384 L 17.080092,16.200436 L 3.3326846,30.760338 z "
     id="path5496"
     sodipodi:nodetypes="ccccc" />
  <path
     style="fill:#acbcee;fill-opacity:1.0000000;fill-rule:evenodd;stroke:none;stroke-width:1.0143771px;stroke-linecap:butt;stroke-linejoin:miter;stroke-opacity:1.0000000"
     d="M 23.287550,9.8304787 L 18.542582,14.705446 L 26.667528,22.830391 L 63.002283,22.830391 L 71.257227,14.575447 L 66.674758,9.8304787 L 23.287550,9.8304787 z "
     id="path5500"
     sodipodi:nodetypes="ccccccc" />
  <path
     style="fill:#a483cd;fill-opacity:1.0000000;fill-rule:evenodd;stroke:none;stroke-width:1.0143771px;stroke-linecap:butt;stroke-linejoin:miter;stroke-opacity:1.0000000"
     d="M 67.162255,18.670419 L 71.257227,14.575447 L 66.674758,9.8304787 L 61.251357,9.8304787 L 67.162255,18.670419 z "
     id="path5502"
     sodipodi:nodetypes="ccccc" />
  <path
     style="fill:#a483cd;fill-opacity:1.0000000;fill-rule:evenodd;stroke:none;stroke-width:1.0143771px;stroke-linecap:butt;stroke-linejoin:miter;stroke-opacity:1.0000000"
     d="M 23.287550,9.8304787 L 18.542582,14.705446 L 17.080092,16.200436 L 24.750040,23.870384 L 26.667528,22.830391 L 28.715014,9.8304787 L 23.287550,9.8304787 z "
     id="path5504" />
  <path
     style="fill:#a483cd;fill-opacity:1.0000000;fill-rule:evenodd;stroke:none;stroke-width:1.0143771px;stroke-linecap:butt;stroke-linejoin:miter;stroke-opacity:1.0000000"
     d="M 68.835994,19.954161 L 64.919770,23.870384 L 68.462246,27.404736 L 68.835994,19.954161 z "
     id="path5509"
     sodipodi:nodetypes="cccc" />
  <path
     style="fill:#a483cd;fill-opacity:1.0000000;fill-rule:evenodd;stroke:none;stroke-width:1.0143771px;stroke-linecap:butt;stroke-linejoin:miter;stroke-opacity:1.0000000"
     d="M 86.662120,33.360320 L 44.834905,73.822548 L 44.964904,78.112519 L 86.662120,38.462786 L 86.662120,33.360320 z "
     id="path5537"
     sodipodi:nodetypes="ccccc" />
  <path
     style="fill:#ddfedd;fill-opacity:1.0000000;fill-rule:evenodd;stroke:none;stroke-width:1.0143771px;stroke-linecap:butt;stroke-linejoin:miter;stroke-opacity:1.0000000"
     d="M 22.852865,57.048599 L 34.564974,68.200086 L 34.467475,63.812615 L 24.737853,54.397835 L 22.852865,57.048599 z "
     id="path5560"
     sodipodi:nodetypes="ccccc" />
  <path
     style="fill:#4a429b;fill-opacity:1.0000000;fill-rule:evenodd;stroke:none;stroke-width:2.0000000;stroke-linecap:butt;stroke-linejoin:miter;stroke-miterlimit:4.0000000;stroke-opacity:1.0000000"
     d="M 24.995141,54.762501 L 17.266600,47.359602 L 32.537800,47.359602 L 24.995141,54.762501 z "
     id="path5469"
     sodipodi:nodetypes="cccc" />
  <path
     style="fill:#4a429b;fill-opacity:1.0000000;fill-rule:evenodd;stroke:none;stroke-width:2.0000000;stroke-linecap:butt;stroke-linejoin:miter;stroke-miterlimit:4.0000000;stroke-opacity:1.0000000"
     d="M 69.429115,47.359602 L 44.834905,70.930067 L 44.834905,73.822548 L 70.525982,49.179589 L 69.429115,47.359602 z "
     id="path5541"
     sodipodi:nodetypes="ccccc" />
  <path
     sodipodi:nodetypes="ccccc"
     style="stroke-opacity:1.0000000;stroke-miterlimit:4.0000000;stroke-linejoin:miter;stroke-linecap:butt;stroke-width:2.0000000;stroke:none;fill-rule:evenodd;fill-opacity:1.0000000;fill:#a483cd"
     d="M 44.837501,70.934825 L 26.442625,53.319944 L 24.980135,54.749934 L 44.837501,73.827306 L 44.837501,70.934825 z "
     id="path1468" />
  <path
     sodipodi:nodetypes="ccccc"
     style="stroke-opacity:1.0000000;stroke-miterlimit:4.0000000;stroke-linejoin:miter;stroke-linecap:butt;stroke-width:2.0000000;stroke:none;fill-rule:evenodd;fill-opacity:1.0000000;fill:#a483cd"
     d="M 24.752636,23.875142 L 10.582732,38.012547 L 12.045222,39.507537 L 26.637624,24.915135 L 24.752636,23.875142 z "
     id="path1608" />
  <path
     style="stroke-opacity:1.0000000;stroke-linejoin:miter;stroke-linecap:butt;stroke-width:1.0143771px;stroke:none;fill-rule:evenodd;fill-opacity:1.0000000;fill:#acbcee"
     d="M 86.656250,33.375000 L 79.125000,40.750000 L 79.125000,45.531250 L 86.656250,38.468750 L 86.656250,33.375000 z "
     id="path1700"
     sodipodi:nodetypes="ccccc" />
</svg>
